<svg width="625" height="220" viewBox="0 0 585 242" fill="none" xmlns="http://www.w3.org/2000/svg">
<path d="M426.899 10.2627C428.361 -2.32559 446.639 -2.32559 448.101 10.2627V10.2627C449.314 20.7015 463.294 23.2882 468.162 13.9743L470.606 9.29719C476.206 -1.41777 492.484 4.92773 489.355 16.6056V16.6056C486.707 26.4905 498.723 33.6141 506.124 26.5467L512.189 20.7555C520.407 12.9079 532.9 23.6777 526.349 32.9624V32.9624C520.678 40.9996 529.61 51.2412 538.344 46.7157L545.763 42.8713C555.324 37.917 563.695 51.1974 555.102 57.6868V57.6868C547.542 63.3962 553.123 75.3795 562.358 73.2663L567.845 72.0109C578.016 69.6834 582.535 84.2557 572.832 88.0918V88.0918C564.226 91.4938 566.92 104.27 576.173 104.389V104.389C586.577 104.524 588.383 119.748 578.067 121.109V121.109C568.932 122.314 568.14 135.237 577.063 137.531V137.531C587.117 140.117 584.421 155.067 574.098 153.978L570.535 153.602C561.245 152.622 557.301 165.092 565.465 169.633V169.633C574.699 174.767 568.294 188.803 558.365 185.194L551.533 182.711C542.47 179.418 535.216 190.678 541.962 197.568V197.568C549.683 205.456 539.267 217.68 530.254 211.307L523.102 206.251C514.904 200.455 504.352 209.329 508.655 218.399V218.399C513.681 228.991 499.178 237.819 492.078 228.491L487.713 222.757C481.416 214.484 468.216 219.489 468.985 229.857V229.857C469.904 242.245 452.295 245.598 448.597 233.739L447.774 231.102C444.631 221.025 430.369 221.025 427.226 231.102L426.403 233.739C422.705 245.598 405.096 242.245 406.015 229.857V229.857C406.784 219.489 393.584 214.484 387.287 222.757L382.922 228.491C375.822 237.819 361.319 228.991 366.345 218.399V218.399C370.648 209.329 360.096 200.455 351.898 206.251L344.746 211.307C335.733 217.68 325.317 205.456 333.038 197.568V197.568C339.784 190.678 332.53 179.418 323.467 182.711L316.635 185.194C306.706 188.803 300.301 174.767 309.535 169.633V169.633C317.699 165.092 313.755 152.622 304.465 153.602L300.902 153.978C290.579 155.067 287.883 140.117 297.937 137.531V137.531C306.86 135.237 306.068 122.314 296.933 121.109V121.109C286.617 119.748 288.423 104.524 298.827 104.389V104.389C308.08 104.27 310.774 91.4938 302.168 88.0918V88.0918C292.465 84.2557 296.984 69.6834 307.155 72.0109L312.642 73.2663C321.877 75.3795 327.458 63.3962 319.898 57.6868V57.6868C311.305 51.1974 319.676 37.9169 329.237 42.8713L336.656 46.7157C345.39 51.2412 354.322 40.9996 348.651 32.9624V32.9624C342.1 23.6777 354.593 12.9079 362.811 20.7554L368.876 26.5467C376.277 33.6142 388.293 26.4905 385.645 16.6057V16.6057C382.516 4.92777 398.794 -1.41776 404.394 9.29719L406.838 13.9743C411.706 23.2882 425.686 20.7015 426.899 10.2627V10.2627Z" fill="#D6ACDA"/>
<rect y="121" width="317" height="16" fill="#D6ACDA"/>
</svg>



