<svg width="133" height="80" viewBox="0 0 295 242" fill="none" xmlns="http://www.w3.org/2000/svg">
<path d="M136.899 10.2627C138.361 -2.32559 156.639 -2.32559 158.101 10.2627C159.314 20.7015 173.294 23.2882 178.162 13.9743L180.606 9.29719C186.206 -1.41778 202.484 4.92773 199.355 16.6056C196.707 26.4905 208.723 33.6141 216.124 26.5467L222.189 20.7554C230.407 12.9079 242.9 23.6777 236.349 32.9624C230.678 40.9996 239.61 51.2412 248.344 46.7157L255.763 42.8713C265.324 37.917 273.695 51.1974 265.102 57.6868C257.542 63.3962 263.123 75.3795 272.358 73.2663L277.845 72.0109C288.016 69.6834 292.535 84.2557 282.832 88.0918C274.226 91.4938 276.92 104.27 286.173 104.389C296.577 104.524 298.383 119.748 288.067 121.109C278.932 122.314 278.14 135.237 287.063 137.531C297.117 140.117 294.421 155.067 284.098 153.978L280.535 153.602C271.245 152.622 267.301 165.092 275.465 169.633C284.699 174.767 278.294 188.803 268.365 185.194L261.533 182.711C252.47 179.418 245.216 190.678 251.962 197.568C259.683 205.456 249.267 217.68 240.254 211.307L233.102 206.251C224.904 200.455 214.352 209.329 218.655 218.399C223.681 228.991 209.178 237.819 202.078 228.491L197.713 222.757C191.416 214.484 178.216 219.489 178.985 229.857C179.904 242.245 162.295 245.598 158.597 233.739L157.774 231.102C154.631 221.025 140.369 221.025 137.226 231.102L136.403 233.739C132.705 245.598 115.096 242.245 116.015 229.857C116.784 219.489 103.584 214.484 97.2867 222.757L92.9223 228.491C85.8216 237.819 71.3195 228.991 76.3447 218.399C80.6481 209.329 70.0957 200.455 61.8979 206.251L54.7458 211.307C45.7326 217.68 35.3166 205.456 43.0383 197.568C49.7838 190.678 42.5297 179.418 33.467 182.711L26.6351 185.194C16.7057 188.803 10.3015 174.767 19.5347 169.633C27.6991 165.092 23.7551 152.622 14.4648 153.602L10.9025 153.978C0.578812 155.067 -2.11708 140.117 7.93674 137.531C16.8601 135.237 16.0676 122.314 6.93302 121.109C-3.38302 119.748 -1.57735 104.524 8.82725 104.389C18.0801 104.27 20.774 91.4938 12.1684 88.0918C2.46461 84.2557 6.98363 69.6834 17.1553 72.0109L22.6417 73.2663C31.8771 75.3795 37.4584 63.3962 29.8979 57.6868C21.3046 51.1974 29.6761 37.9169 39.237 42.8713L46.6561 46.7157C55.3896 51.2412 64.3219 40.9996 58.6512 32.9624C52.1002 23.6777 64.5933 12.9079 72.8113 20.7554L78.876 26.5467C86.2772 33.6142 98.2934 26.4905 95.6447 16.6057C92.5155 4.92776 108.794 -1.41776 114.394 9.2972L116.838 13.9743C121.706 23.2882 135.686 20.7015 136.899 10.2627Z" fill="white"/>
</svg>
